<svg xmlns="http://www.w3.org/2000/svg" width="21" height="17" fill="none" viewBox="0 0 21 17"><path fill="#fff" d="M18.454 2.68A4.3 4.3 0 0 0 20.341.304a8.59 8.59 0 0 1-2.725 1.041A4.3 4.3 0 0 0 10.3 5.261 12.184 12.184 0 0 1 1.456.777a4.3 4.3 0 0 0 1.328 5.73A4.276 4.276 0 0 1 .841 5.97v.054a4.294 4.294 0 0 0 3.443 4.208 4.3 4.3 0 0 1-1.938.074 4.3 4.3 0 0 0 4.009 2.98 8.61 8.61 0 0 1-5.33 1.837c-.343 0-.685-.019-1.025-.059a12.147 12.147 0 0 0 6.579 1.928 12.127 12.127 0 0 0 12.21-12.21c0-.187-.004-.372-.013-.556a8.718 8.718 0 0 0 2.142-2.222 8.58 8.58 0 0 1-2.464.676Z"/></svg>